# xmcd
#
# Track frame offsets:
#	150
#	118630
#	131935
#	143735
#	156537
#	169892
#	183872
#	193922
#	208107
#	219500
#	236152
#	250812
#	261945
#
# Disc length: 3675 seconds
#
# Revision: 1
# Processed by: cddbd v1.5.2PL0 Copyright (c) Steve Scherf et al.
# Submitted via: EZCDAudioConverter 5.0.3.1
#
DISCID=cf0e590d
DTITLE=1 RECOPILACIÓ - Country Grandes Exitos
DYEAR=1997
DGENRE=Country
TTITLE0=Various Artist - DATA
TTITLE1=Kenny Rogers - Ruby, Don't Take Your Love To Town
TTITLE2=Patsy Cline - Walking After Midnigh
TTITLE3=The Bellamy Brothers - Let Your Love Flow
TTITLE4=Lynn Anderson - Rose Garden
TTITLE5=George Jones - A Good Year For The Roses
TTITLE6=Conway Twitty - It's Only Make Belive
TTITLE7=Willie Nelson - Will You Remember Mine
TTITLE8=Johnny Cash - Mean Eyed Cat
TTITLE9=Merle Haggard - I'll Just Stay Here And Drink
TTITLE10=Loreta Lynn - Coalminer's Daughter
TTITLE11=Roger Miller - King Of The Road
TTITLE12=B.J.Thomas - Raindrops Keep Falling On My Head
EXTD=
EXTT0=
EXTT1=
EXTT2=
EXTT3=
EXTT4=
EXTT5=
EXTT6=
EXTT7=
EXTT8=
EXTT9=
EXTT10=
EXTT11=
EXTT12=
PLAYORDER=
